<svg width="144" height="52" viewBox="0 0 144 52" fill="none" xmlns="http://www.w3.org/2000/svg">
<path d="M34.4648 26.2422L34.5352 26.2188H34.8516C34.9453 26.2188 35.082 26.1094 35.2617 25.8906C35.2773 25.875 35.4844 25.8008 35.8828 25.668L35.9297 25.6211C36.0391 25.5273 36.1172 25.4648 36.1641 25.4336H36.3867C36.4023 25.4336 36.4648 25.3984 36.5742 25.3281C36.6836 25.25 36.9141 25.1641 37.2656 25.0703C37.625 24.9766 37.8594 24.8984 37.9688 24.8359C38.0156 24.8203 38.1875 24.7969 38.4844 24.7656L38.8125 24.707L39.0703 24.7305C39.4844 24.7305 39.7812 25.0039 39.9609 25.5508C39.9609 25.582 39.9805 25.6328 40.0195 25.7031C40.0586 25.7656 40.0781 25.8125 40.0781 25.8438C40.0781 26.1719 39.918 26.5156 39.5977 26.875L39.4336 27.3086C39.4336 27.3242 39.3906 27.3828 39.3047 27.4844C39.2266 27.5859 39.1562 27.707 39.0938 27.8477C39.0312 27.9805 38.8633 28.1836 38.5898 28.457C38.543 28.5508 38.4766 28.6992 38.3906 28.9023C38.3047 29.0977 38.2305 29.2266 38.168 29.2891C38.1133 29.3516 37.9609 29.5859 37.7109 29.9922C37.4688 30.3984 37.3477 30.6367 37.3477 30.707C37.2305 30.793 37.1484 30.9375 37.1016 31.1406C37.0625 31.3438 36.9844 31.5352 36.8672 31.7148L36.8438 31.7969C37.0938 31.7109 37.2188 31.5742 37.2188 31.3867C37.2188 31.3633 37.2852 31.3047 37.418 31.2109L37.5117 31.0469C37.6055 30.9375 37.6875 30.875 37.7578 30.8594C37.7734 30.7969 37.8555 30.707 38.0039 30.5898C38.1523 30.4648 38.25 30.3789 38.2969 30.332C38.3516 30.2852 38.4375 30.2383 38.5547 30.1914C38.6719 30.1367 38.8047 29.9414 38.9531 29.6055C38.9688 29.543 39.0273 29.4922 39.1289 29.4531C39.2383 29.4141 39.3281 29.3516 39.3984 29.2656C39.4688 29.1719 39.5273 29.1094 39.5742 29.0781L39.668 28.9375C39.7539 28.8594 39.8125 28.8125 39.8438 28.7969L40.418 28.0938C40.7227 27.8984 40.8906 27.7461 40.9219 27.6367L41.0156 27.6133H41.0859C41.2109 27.5117 41.293 27.4414 41.332 27.4023C41.332 27.168 41.418 27.0156 41.5898 26.9453C41.7695 26.8672 41.8984 26.7773 41.9766 26.6758C42.0547 26.5664 42.1406 26.5117 42.2344 26.5117C42.2578 26.5117 42.3008 26.5352 42.3633 26.582H42.3867C42.4102 26.582 42.4336 26.543 42.457 26.4648V26.3477C42.457 26.2148 42.4961 26.1055 42.5742 26.0195C42.6523 25.9336 42.7578 25.8789 42.8906 25.8555C43.0234 25.8242 43.1523 25.7227 43.2773 25.5508C43.4023 25.3789 43.543 25.2891 43.6992 25.2812C43.8633 25.2734 43.9727 25.2109 44.0273 25.0938C44.082 24.9766 44.25 24.8516 44.5312 24.7188C44.8125 24.5781 44.9883 24.5039 45.0586 24.4961C45.1289 24.4805 45.1914 24.457 45.2461 24.4258C45.3086 24.3945 45.3711 24.3789 45.4336 24.3789C45.5117 24.3789 45.625 24.4023 45.7734 24.4492L45.9844 24.4961C46.1641 24.5742 46.332 24.7188 46.4883 24.9297L46.6055 25.0469V25.0938L46.6289 25.293V25.3867C46.7305 25.4336 46.7812 25.4805 46.7812 25.5273L46.6992 25.6797C46.668 25.7344 46.6523 25.8008 46.6523 25.8789C46.6523 25.9492 46.6484 26.0234 46.6406 26.1016C46.6328 26.1719 46.6211 26.2422 46.6055 26.3125C46.5977 26.375 46.582 26.4375 46.5586 26.5C46.543 26.5547 46.5234 26.6094 46.5 26.6641C46.4766 26.7109 46.4492 26.7578 46.418 26.8047L46.3242 27.1797C46.293 27.3281 46.207 27.5078 46.0664 27.7188C45.9336 27.9219 45.8555 28.0664 45.832 28.1523C45.8086 28.2305 45.7539 28.3398 45.668 28.4805L45.6914 28.5508V28.7148C45.9336 28.6836 46.0547 28.5898 46.0547 28.4336C46.0547 28.2695 46.1523 28.1484 46.3477 28.0703L46.6055 27.8594C46.8086 27.5 47.0586 27.2656 47.3555 27.1562C47.3555 27.0312 47.4297 26.9023 47.5781 26.7695L48.0234 26.3477L48.3398 26.1719C48.4805 25.8828 48.6406 25.707 48.8203 25.6445L49.0781 25.4805C49.2344 25.4023 49.3203 25.3281 49.3359 25.2578C49.3594 25.1797 49.4219 25.1016 49.5234 25.0234C49.625 24.9453 49.7734 24.8164 49.9688 24.6367L50.0625 24.5898L50.1797 24.4727C50.2656 24.4258 50.3633 24.3867 50.4727 24.3555L50.5664 24.3086C50.7617 24.1602 50.9375 24.0625 51.0938 24.0156C51.25 23.9609 51.4258 23.875 51.6211 23.7578L52.0312 23.6992C52.125 23.668 52.1875 23.6523 52.2188 23.6523C52.9609 23.6523 53.332 24.0703 53.332 24.9062L53.3086 25.0938L53.332 25.7734C53.1367 26.0938 53.0391 26.2617 53.0391 26.2773L53.0625 26.4883C53.0625 26.5195 53.0117 26.6133 52.9102 26.7695C52.8086 26.918 52.7461 27.0078 52.7227 27.0391C52.707 27.0703 52.6367 27.1523 52.5117 27.2852L52.3945 27.6367C52.3555 27.7148 52.2891 27.7891 52.1953 27.8594V28C52.1953 28.1172 52.043 28.293 51.7383 28.5273C51.6992 28.7305 51.6289 28.8828 51.5273 28.9844C51.4336 29.0781 51.3594 29.1797 51.3047 29.2891C51.2578 29.3906 51.1797 29.4883 51.0703 29.582C51.0703 29.6836 51.0039 29.8555 50.8711 30.0977C50.7383 30.3398 50.6328 30.4961 50.5547 30.5664C50.4844 30.6289 50.4102 30.7422 50.332 30.9062L50.2266 30.9531C50.1797 31.25 50.125 31.418 50.0625 31.457L49.875 31.4336V31.4805C49.875 31.4961 49.8906 31.5234 49.9219 31.5625C49.9531 31.6016 49.9688 31.6445 49.9688 31.6914C49.9688 31.7461 49.9453 31.793 49.8984 31.832C49.8516 31.8711 49.8242 31.9102 49.8164 31.9492C49.8086 31.9883 49.7891 32.0273 49.7578 32.0664C49.7344 32.1055 49.7188 32.1836 49.7109 32.3008C49.7031 32.4102 49.6445 32.5625 49.5352 32.7578C49.4258 32.9531 49.3672 33.0859 49.3594 33.1562C49.3516 33.2266 49.3398 33.2852 49.3242 33.332C49.3086 33.3789 49.3008 33.4258 49.3008 33.4727C49.3008 33.5195 49.2812 33.6406 49.2422 33.8359C49.3906 34.1875 49.4961 34.4258 49.5586 34.5508C49.6211 34.6758 49.6523 34.7578 49.6523 34.7969C49.6523 35.1094 49.6133 35.3203 49.5352 35.4297C49.457 35.5312 49.2656 35.582 48.9609 35.582C48.7656 35.582 48.5938 35.5156 48.4453 35.3828C48.3047 35.2422 48.1797 35.1719 48.0703 35.1719V34.9609L48.0469 34.9375H47.8594C47.8438 34.9219 47.8086 34.8945 47.7539 34.8555C47.707 34.8164 47.6602 34.7617 47.6133 34.6914L47.543 34.6211C47.4805 34.543 47.4258 34.4141 47.3789 34.2344L47.3086 34L47.332 33.8125L47.3086 33.5195C47.3086 33.4414 47.3164 33.3789 47.332 33.332L47.3555 33.0156C47.3555 32.9844 47.3711 32.918 47.4023 32.8164C47.4336 32.707 47.4531 32.582 47.4609 32.4414C47.4688 32.293 47.5039 32.1797 47.5664 32.1016C47.6289 32.0234 47.6641 31.957 47.6719 31.9023C47.6797 31.8477 47.6992 31.8047 47.7305 31.7734C47.7695 31.7344 47.8008 31.6445 47.8242 31.5039C47.8477 31.3633 47.9297 31.25 48.0703 31.1641C48.1484 31.0234 48.2148 30.8906 48.2695 30.7656C48.4336 30.5391 48.5195 30.4258 48.5273 30.4258H48.6914C48.6133 30.332 48.5742 30.2773 48.5742 30.2617C48.5742 30.0508 48.6562 29.9453 48.8203 29.9453C48.8516 29.9453 48.8906 29.9531 48.9375 29.9688L48.9844 29.875L48.9375 29.6758C48.9375 29.543 49.0391 29.4102 49.2422 29.2773C49.2422 29.0508 49.3477 28.8477 49.5586 28.668L49.5352 28.4805C49.582 28.4336 49.6484 28.332 49.7344 28.1758C49.8203 28.0117 49.9297 27.8477 50.0625 27.6836L50.4258 27.1328L50.5898 26.9453C50.5898 26.9531 50.5898 26.957 50.5898 26.957C50.5977 26.9492 50.6055 26.9336 50.6133 26.9102C50.6289 26.8789 50.6445 26.8359 50.6602 26.7812L50.7305 26.6055L50.8125 26.5117C51.0156 26.457 51.1172 26.3867 51.1172 26.3008C51.1172 26.2852 51.0859 26.2344 51.0234 26.1484V26.1016C51.0234 26.0391 51.0703 25.9609 51.1641 25.8672C51.2578 25.7734 51.3438 25.6445 51.4219 25.4805C51.5078 25.3086 51.5508 25.2031 51.5508 25.1641C51.5508 25.1328 51.5352 25.1172 51.5039 25.1172C51.2539 25.1172 51.0859 25.207 51 25.3867C51 25.4336 50.8477 25.5273 50.543 25.668L50.4258 25.8438C50.332 25.9297 50.25 25.9727 50.1797 25.9727C50.1094 25.9727 50.0156 26.0195 49.8984 26.1133C49.7891 26.1992 49.543 26.4023 49.1602 26.7227C48.7773 27.0352 48.4961 27.293 48.3164 27.4961L48.0469 27.6836C47.9375 27.7383 47.8828 27.7812 47.8828 27.8125C47.8828 27.8906 47.8164 27.9922 47.6836 28.1172L47.543 28.293C47.4336 28.2539 47.3711 28.2344 47.3555 28.2344C47.2695 28.2344 47.1953 28.2773 47.1328 28.3633C47.1953 28.4258 47.2266 28.4648 47.2266 28.4805C47.2266 28.6055 47.1094 28.7344 46.875 28.8672L46.3711 29.3945C46.3555 29.4102 46.2969 29.4531 46.1953 29.5234C46.0938 29.5938 46.0156 29.6836 45.9609 29.793C45.9141 29.8945 45.7773 30.0781 45.5508 30.3438C45.3242 30.6016 45.1914 30.7422 45.1523 30.7656C45.1133 30.7812 45.0664 30.832 45.0117 30.918C44.957 31.0039 44.8438 31.125 44.6719 31.2812C44.5 31.4375 44.4023 31.6094 44.3789 31.7969C44.2305 31.8516 44.1562 31.8984 44.1562 31.9375L44.0859 32.0547L43.9922 32.1016C43.9766 32.1328 43.9648 32.1875 43.957 32.2656C43.9492 32.3359 43.793 32.4688 43.4883 32.6641C43.1836 32.8516 42.9922 32.9453 42.9141 32.9453C42.8906 32.9453 42.8555 32.9609 42.8086 32.9922C42.7617 33.0234 42.7305 33.0391 42.7148 33.0391C42.6914 33.0391 42.5859 32.9922 42.3984 32.8984C42.2188 32.8047 42.0859 32.5859 42 32.2422L42.0938 31.9375L42.0469 31.6914C42.0469 31.6445 42.082 31.582 42.1523 31.5039C42.2305 31.4258 42.2695 31.3281 42.2695 31.2109C42.3945 30.9297 42.4883 30.7305 42.5508 30.6133L42.5742 30.4258C42.6055 30.3477 42.6562 30.2617 42.7266 30.168C42.8047 30.0664 42.8516 29.957 42.8672 29.8398C42.8828 29.7148 42.9336 29.6367 43.0195 29.6055C43.1055 29.5742 43.4219 29.1016 43.9688 28.1875V28.0234L44.3086 27.4375C44.4102 27.2656 44.5352 27.0703 44.6836 26.8516L44.7891 26.582C44.5469 26.4883 44.418 26.4414 44.4023 26.4414C44.3555 26.4414 44.2969 26.4727 44.2266 26.5352C44.2266 26.668 43.9961 26.8047 43.5352 26.9453C43.4414 26.9922 43.3203 27.1055 43.1719 27.2852L42.8438 27.4727C42.7969 27.5039 42.7227 27.5664 42.6211 27.6602L42.457 27.8125C42.2617 27.8594 42.0938 27.9688 41.9531 28.1406L41.6367 28.3633C41.543 28.4414 41.4805 28.5 41.4492 28.5391C41.418 28.5781 41.2734 28.6641 41.0156 28.7969L40.8281 28.9844L40.6523 29.0781C40.5273 29.2109 40.4336 29.3242 40.3711 29.418C40.3086 29.5117 40.2266 29.5664 40.125 29.582L39.8672 29.6758C39.8203 29.8789 39.6758 30.0742 39.4336 30.2617L39.0938 30.6836C39.0312 30.7383 38.9766 30.7812 38.9297 30.8125C38.8984 30.8906 38.8438 30.9453 38.7656 30.9766C38.6641 31.1016 38.5977 31.1875 38.5664 31.2344L38.4258 31.3398C38.2148 31.418 38.1094 31.4805 38.1094 31.5273L38.1328 31.7383C38.1328 31.8242 38.0391 31.9062 37.8516 31.9844C37.7734 32.0234 37.7266 32.0859 37.7109 32.1719C37.7031 32.2578 37.6758 32.3477 37.6289 32.4414H37.418C37.3945 32.4414 37.3203 32.4805 37.1953 32.5586C37.1797 32.5586 37.1641 32.5664 37.1484 32.582L37.1953 32.8516C37.1953 32.9453 37.1328 33.0547 37.0078 33.1797C36.8828 33.2969 36.7852 33.4023 36.7148 33.4961C36.6523 33.5898 36.6055 33.6367 36.5742 33.6367H36.5039L36.4336 33.6836C36.4414 33.832 36.3438 33.9922 36.1406 34.1641L36 34.3398C35.9531 34.3789 35.8203 34.5742 35.6016 34.9258C35.3828 35.2773 35.1758 35.5625 34.9805 35.7812C34.7852 36 34.6055 36.1484 34.4414 36.2266C34.2773 36.2969 34.1016 36.3711 33.9141 36.4492L33.4336 36.3555C33.3867 36.2695 33.3164 36.1992 33.2227 36.1445C33.1367 36.0898 33.0938 36.0312 33.0938 35.9688L32.9531 35.5586C32.9531 35.4492 32.9961 35.3164 33.082 35.1602C33.168 34.9961 33.2188 34.8711 33.2344 34.7852C33.2578 34.6914 33.3047 34.5703 33.375 34.4219C33.4453 34.2656 33.4805 34.1797 33.4805 34.1641C33.4805 33.9531 33.5117 33.8242 33.5742 33.7773C33.6445 33.7227 33.7969 33.6055 34.0312 33.4258C34.0469 33.4258 34.0547 33.4102 34.0547 33.3789V33.3555L34.0312 33.1562C34.2109 32.8516 34.3242 32.6992 34.3711 32.6992C34.3867 32.6992 34.418 32.707 34.4648 32.7227L34.3945 32.4648C34.3945 32.4336 34.4375 32.3828 34.5234 32.3125C34.6094 32.2422 34.6758 32.1641 34.7227 32.0781L34.6758 31.9375V31.8906C34.6758 31.7422 34.7734 31.5898 34.9688 31.4336C35 31.3711 35.0625 31.2109 35.1562 30.9531L35.4609 30.4141C35.5391 30.2656 35.6211 30.168 35.707 30.1211C35.793 30.0664 35.8398 30.0039 35.8477 29.9336C35.8555 29.8633 35.8828 29.7852 35.9297 29.6992C35.9297 29.7383 35.9336 29.7422 35.9414 29.7109C35.957 29.6719 35.9766 29.5938 36 29.4766C36.0312 29.3594 36.1211 29.2656 36.2695 29.1953C36.4492 28.7344 36.5898 28.5039 36.6914 28.5039C36.7227 28.5039 36.7656 28.5195 36.8203 28.5508H36.8672C36.9922 28.5508 37.0547 28.5039 37.0547 28.4102C37.0547 28.3789 37.0391 28.3633 37.0078 28.3633C36.9375 28.4414 36.875 28.4805 36.8203 28.4805C36.7656 28.4805 36.7383 28.4648 36.7383 28.4336C36.7383 28.418 36.75 28.4023 36.7734 28.3867L37.0312 27.8594L37.0547 27.6367C37.0859 27.5898 37.1484 27.5195 37.2422 27.4258L37.4414 27.1562V27.0391C37.4414 27.0234 37.4766 26.9453 37.5469 26.8047C37.6172 26.6562 37.668 26.5117 37.6992 26.3711L37.8984 26.0781C37.9297 25.9844 37.9453 25.8984 37.9453 25.8203C37.9453 25.7031 37.9297 25.6445 37.8984 25.6445L37.2188 25.7734C36.8516 25.9609 36.5898 26.1094 36.4336 26.2188L36.1641 26.2773C36.1484 26.2773 36.043 26.332 35.8477 26.4414C35.6602 26.543 35.4922 26.6016 35.3438 26.6172C35.2031 26.625 35.0781 26.6797 34.9688 26.7812L34.9219 26.8047H34.6992C34.6133 26.9062 34.5547 26.9844 34.5234 27.0391C34.4922 27.0859 34.4648 27.1094 34.4414 27.1094C33.6523 27.6328 33.1523 27.9492 32.9414 28.0586C32.7305 28.168 32.5703 28.2695 32.4609 28.3633C32.3516 28.4492 32.2578 28.5117 32.1797 28.5508V28.6914C32.1797 28.8242 32.082 28.9766 31.8867 29.1484C31.6992 29.3125 31.5352 29.3945 31.3945 29.3945C31.3477 29.3945 31.2734 29.3711 31.1719 29.3242C31.0781 29.2695 30.9688 29.2344 30.8438 29.2188C30.7266 29.2031 30.668 29.0547 30.668 28.7734C30.668 28.375 30.9961 28.0117 31.6523 27.6836C31.7539 27.6367 31.8477 27.582 31.9336 27.5195C32.0195 27.457 32.3672 27.3047 32.9766 27.0625L33.3164 26.8984C33.3945 26.8203 33.5234 26.75 33.7031 26.6875C33.8906 26.6172 34.0352 26.5586 34.1367 26.5117C34.2461 26.4648 34.332 26.4336 34.3945 26.418L34.4648 26.2422ZM45.457 29.0781L45.5742 28.8672V28.8438C45.5742 28.8281 45.5586 28.8203 45.5273 28.8203C45.4492 28.8203 45.3867 28.8984 45.3398 29.0547C45.3555 29.1016 45.3711 29.125 45.3867 29.125C45.418 29.125 45.4414 29.1094 45.457 29.0781ZM57.0938 26.1484L57.0234 25.6914V25.6211C57.0234 25.2539 57.1484 25.0508 57.3984 25.0117C57.4531 25.0039 57.6172 24.9531 57.8906 24.8594C58.0312 24.8906 58.1758 25.0156 58.3242 25.2344C58.4805 25.4453 58.5586 25.6328 58.5586 25.7969C58.5586 25.8125 58.5469 25.8477 58.5234 25.9023C58.5 25.957 58.4844 26.0625 58.4766 26.2188C58.4688 26.3672 58.3906 26.5 58.2422 26.6172C58.1016 26.7266 57.9492 26.7812 57.7852 26.7812C57.6758 26.7812 57.5352 26.707 57.3633 26.5586C57.1992 26.4023 57.1094 26.2656 57.0938 26.1484ZM52.0312 32.0078L52.2188 31.8438H52.2891C52.3438 31.8438 52.4258 31.7852 52.5352 31.668L52.6523 31.6211C52.8086 31.3867 52.9453 31.25 53.0625 31.2109L53.25 31.0703C53.2812 31.0391 53.3242 31.0117 53.3789 30.9883C53.4414 30.9648 53.5352 30.8906 53.6602 30.7656C53.793 30.6328 53.8984 30.5664 53.9766 30.5664C54.0547 30.5664 54.1172 30.5742 54.1641 30.5898C54.2109 30.4961 54.3047 30.4062 54.4453 30.3203C54.5859 30.2266 54.6992 30.1172 54.7852 29.9922L54.9375 29.9219C55.0625 29.8594 55.1719 29.7812 55.2656 29.6875C55.3672 29.5859 55.4961 29.5352 55.6523 29.5352C55.8789 29.5352 56.1133 29.6523 56.3555 29.8867C56.6055 30.1133 56.7305 30.332 56.7305 30.543L56.5312 31.457C56.3984 32.1289 56.25 32.4805 56.0859 32.5117L56.0391 32.7578C55.9297 32.8359 55.875 32.8984 55.875 32.9453L55.9453 33.2266C55.9453 33.2656 55.9023 33.3242 55.8164 33.4023C55.8008 33.4023 55.793 33.4258 55.793 33.4727V33.9531C55.793 34.0391 55.7383 34.1094 55.6289 34.1641C55.6445 34.1797 55.668 34.1953 55.6992 34.2109C55.7461 34.1641 55.8516 34.1406 56.0156 34.1406L56.2031 34.1641L56.4609 33.9062C56.5156 33.8906 56.5898 33.8555 56.6836 33.8008C56.7852 33.7383 56.9531 33.6602 57.1875 33.5664L58.7227 32.3945C58.9336 32.1836 59.0938 32.0781 59.2031 32.0781C59.3203 32.0781 59.3789 32.1523 59.3789 32.3008C59.3789 32.4727 59.3438 32.6172 59.2734 32.7344C59.2109 32.8438 59.1523 32.9805 59.0977 33.1445C59.043 33.3008 58.9766 33.4102 58.8984 33.4727C58.8281 33.5352 58.7695 33.6055 58.7227 33.6836C58.6758 33.7539 58.5469 33.8594 58.3359 34C58.1328 34.1406 57.957 34.2852 57.8086 34.4336C57.668 34.5742 57.5508 34.6758 57.457 34.7383L56.9531 35.1016L56.8828 35.2188C56.8672 35.2344 56.793 35.2695 56.6602 35.3242C56.5352 35.3711 56.4219 35.4336 56.3203 35.5117L56.1094 35.6289C56.0625 35.6602 55.9844 35.6797 55.875 35.6875C55.7734 35.6953 55.6836 35.7422 55.6055 35.8281C55.5273 35.9062 55.4648 35.9453 55.418 35.9453L55.2422 35.9219L55.0078 35.9922C54.875 35.9922 54.7109 35.9141 54.5156 35.7578C54.3281 35.5938 54.2344 35.4219 54.2344 35.2422V35.1719L54.2578 35.0078C54.2578 34.9766 54.2344 34.8984 54.1875 34.7734C54.1406 34.6406 54.1172 34.5664 54.1172 34.5508L54.1406 34.3867L54.1172 34.3164C54.1172 34.1055 54.1328 33.9727 54.1641 33.918C54.1953 33.8633 54.2188 33.7891 54.2344 33.6953C54.25 33.5938 54.2656 33.5117 54.2812 33.4492L54.3398 33.1562C54.3711 33.0625 54.4102 33 54.457 32.9688C54.4727 32.9062 54.5039 32.8008 54.5508 32.6523L54.5977 32.4414L54.7148 32.2773C54.7773 32.2148 54.8125 32.1328 54.8203 32.0312C54.8359 31.9219 54.8789 31.8086 54.9492 31.6914C55.0195 31.5742 55.0547 31.5039 55.0547 31.4805C55.0547 31.3867 55.0078 31.3398 54.9141 31.3398C54.8828 31.3398 54.7852 31.4023 54.6211 31.5273L54.4102 31.457C54.3945 31.457 54.3516 31.4961 54.2812 31.5742C54.2812 31.6055 54.2461 31.6289 54.1758 31.6445C54.1055 31.6602 54.0391 31.7188 53.9766 31.8203L53.8828 31.8438L53.7305 31.7734H53.6836C53.6055 31.7734 53.5586 31.8594 53.543 32.0312C53.457 32.1562 53.3438 32.2383 53.2031 32.2773L52.9453 32.3477C52.8594 32.3789 52.7969 32.4492 52.7578 32.5586C52.7188 32.668 52.6406 32.7695 52.5234 32.8633C52.4062 32.9492 52.3281 32.9922 52.2891 32.9922C52.0703 32.9922 51.9609 32.8711 51.9609 32.6289L52.0547 32.0781L52.0312 32.0078ZM68.2031 33.0391L68.3906 32.875C68.5078 32.875 68.5781 32.8242 68.6016 32.7227C68.625 32.6133 68.707 32.5273 68.8477 32.4648C68.9961 32.4023 69.1328 32.2773 69.2578 32.0898C69.3828 31.8945 69.5117 31.7969 69.6445 31.7969C69.6914 31.7969 69.7461 31.8359 69.8086 31.9141C69.8711 31.9922 69.9023 32.0547 69.9023 32.1016C69.9023 32.3594 69.8242 32.625 69.668 32.8984L69.6211 33.2266L69.5391 33.3789C69.4219 33.4414 69.3438 33.5078 69.3047 33.5781C69.2734 33.6484 69.1836 33.7344 69.0352 33.8359L68.918 34C68.7461 34.0547 68.6289 34.1445 68.5664 34.2695C68.5117 34.3945 68.4297 34.4648 68.3203 34.4805C68.2188 34.4961 68.1055 34.5742 67.9805 34.7148C67.9023 34.7539 67.8086 34.7891 67.6992 34.8203L67.6758 34.9375C67.5977 35.0156 67.4727 35.0781 67.3008 35.125C67.1367 35.1719 67.0117 35.2188 66.9258 35.2656C66.8477 35.3047 66.793 35.3242 66.7617 35.3242C66.6133 35.3242 66.4766 35.2969 66.3516 35.2422C66.2266 35.1797 66.0977 35.1406 65.9648 35.125C65.918 35.0781 65.8906 35.0273 65.8828 34.9727C65.875 34.918 65.8359 34.8477 65.7656 34.7617C65.6953 34.668 65.6602 34.543 65.6602 34.3867L65.707 34.1641C65.707 34.1328 65.6875 34.0938 65.6484 34.0469C65.6094 34 65.5898 33.9609 65.5898 33.9297C65.5898 33.8984 65.5977 33.875 65.6133 33.8594C65.6289 33.8438 65.6367 33.8203 65.6367 33.7891C65.6367 33.75 65.6289 33.707 65.6133 33.6602C65.5977 33.6133 65.5898 33.5742 65.5898 33.543L65.6602 32.9688C65.6602 32.9219 65.6445 32.8984 65.6133 32.8984C65.582 32.8984 65.5234 32.9375 65.4375 33.0156C65.3594 33.0938 65.2656 33.1328 65.1562 33.1328C65.0938 33.1797 65.043 33.2773 65.0039 33.4258C64.9414 33.5039 64.8633 33.5742 64.7695 33.6367L64.7227 33.707C64.707 33.7617 64.6484 33.8086 64.5469 33.8477C64.4453 33.8789 64.375 33.9219 64.3359 33.9766L64.2188 34.0938L63.9961 34.0703C63.9805 34.0859 63.9375 34.1562 63.8672 34.2812C63.7969 34.3984 63.707 34.4961 63.5977 34.5742L62.707 35.3008C62.6133 35.3633 62.4766 35.4414 62.2969 35.5352L62.2266 35.6055C61.6016 36.0195 61.1602 36.2266 60.9023 36.2266C60.6914 36.2266 60.4453 36.168 60.1641 36.0508C59.8828 35.9336 59.7305 35.793 59.707 35.6289L59.5898 35.1484C59.5195 35.0391 59.4844 34.8867 59.4844 34.6914C59.4844 34.5977 59.4922 34.5352 59.5078 34.5039V34.4336L59.4844 34.0469C59.4844 33.9531 59.5586 33.9062 59.707 33.9062L59.6836 33.5898C59.6836 33.5586 59.75 33.4375 59.8828 33.2266C60.0234 33.0078 60.1172 32.8828 60.1641 32.8516L60.2812 32.6992C60.2734 32.6055 60.3281 32.5078 60.4453 32.4062C60.5625 32.2969 60.6562 32.1875 60.7266 32.0781C60.7969 31.9688 60.9297 31.8477 61.125 31.7148L61.4766 31.3633C61.75 31.0898 62.0469 30.8711 62.3672 30.707C62.4141 30.6914 62.5078 30.6133 62.6484 30.4727C62.7969 30.332 62.9609 30.2305 63.1406 30.168C63.3281 30.0977 63.5078 30.0117 63.6797 29.9102C63.8594 29.8086 64 29.7578 64.1016 29.7578H64.1953C64.2266 29.7578 64.4336 29.6602 64.8164 29.4648H64.8867C64.918 29.4648 64.9922 29.4961 65.1094 29.5586H65.1328L65.3203 29.4648C65.3516 29.4492 65.3906 29.4414 65.4375 29.4414C65.9219 29.4414 66.1875 29.7773 66.2344 30.4492C66.25 30.5898 66.2891 30.6602 66.3516 30.6602C66.4297 30.6602 66.5391 30.5195 66.6797 30.2383C66.8281 29.9492 67.1367 29.8047 67.6055 29.8047C67.9414 29.8047 68.1094 30.0195 68.1094 30.4492C68.1094 30.957 67.8828 31.4375 67.4297 31.8906C67.3984 31.9531 67.375 32.0234 67.3594 32.1016L67.1953 32.582V32.6055C67.1953 32.6523 67.1602 32.7188 67.0898 32.8047C67.0273 32.8828 66.9961 32.9531 66.9961 33.0156L67.0195 33.3086L66.9727 33.6367C66.9727 33.7852 67 33.8828 67.0547 33.9297C67.3047 33.8672 67.4844 33.7656 67.5938 33.625C67.7109 33.4766 67.793 33.3945 67.8398 33.3789L67.957 33.332C68.0273 33.2148 68.1094 33.1172 68.2031 33.0391ZM64.3125 33.0391C64.3438 32.8672 64.4375 32.7383 64.5938 32.6523C64.7578 32.5586 64.8555 32.4648 64.8867 32.3711C65.0352 32.2617 65.2461 32.0664 65.5195 31.7852C65.8008 31.5039 65.9414 31.332 65.9414 31.2695C65.9414 31.2461 65.9258 31.2344 65.8945 31.2344H65.8711L65.7773 31.293L65.5664 31.2695L65.3438 31.293L65.1797 31.2109L65.0273 31.2344L64.793 31.1875C64.668 31.1875 64.5586 31.2148 64.4648 31.2695C64.3789 31.3164 64.207 31.3711 63.9492 31.4336C63.6992 31.4961 63.4727 31.6055 63.2695 31.7617C63.0664 31.9102 62.918 31.9844 62.8242 31.9844C62.7695 32.1016 62.5859 32.2695 62.2734 32.4883C62.0859 32.5508 61.9648 32.6875 61.9102 32.8984C61.707 33.0625 61.6055 33.1562 61.6055 33.1797L61.5234 33.3789C61.4609 33.4336 61.3828 33.4805 61.2891 33.5195C61.1953 33.5508 61.1406 33.6328 61.125 33.7656C61.1094 33.8906 61.0547 34.0078 60.9609 34.1172C60.875 34.2188 60.832 34.3008 60.832 34.3633C60.832 34.7461 60.9062 34.9375 61.0547 34.9375C61.1172 34.9375 61.2461 34.8984 61.4414 34.8203C61.6445 34.7344 61.7617 34.6758 61.793 34.6445C61.8242 34.6133 61.8867 34.582 61.9805 34.5508L62.2031 34.4336C62.2344 34.4023 62.2695 34.3828 62.3086 34.375C62.3477 34.3672 62.3867 34.3438 62.4258 34.3047C62.4648 34.2578 62.5352 34.2109 62.6367 34.1641C62.7383 34.1094 62.8164 34.0391 62.8711 33.9531C63.0039 33.875 63.2188 33.7539 63.5156 33.5898L63.7617 33.4023C63.9336 33.3242 64.0391 33.2578 64.0781 33.2031C64.1172 33.1484 64.1953 33.0938 64.3125 33.0391ZM74.3906 30.7422L74.7188 30.5898C74.8281 30.5195 74.9336 30.418 75.0352 30.2852L75.4453 29.9922C75.6797 29.8359 75.832 29.7578 75.9023 29.7578L76.0898 29.8281C76.1055 29.8281 76.1523 29.7812 76.2305 29.6875C76.3164 29.5859 76.4141 29.5352 76.5234 29.5352C76.6641 29.5352 76.8555 29.6406 77.0977 29.8516C77.3398 30.0625 77.4609 30.25 77.4609 30.4141L77.4141 30.8125C77.4141 30.875 77.4453 31.0508 77.5078 31.3398V31.4336L77.4609 31.7148L77.5078 32.0078L77.3789 32.582C77.3789 32.7305 77.4297 32.8047 77.5312 32.8047C77.6641 32.6797 77.7773 32.6055 77.8711 32.582L78.0352 32.418C78.0977 32.3555 78.1445 32.3242 78.1758 32.3242C78.207 32.3242 78.2461 32.2891 78.293 32.2188C78.3477 32.1406 78.4141 32.0859 78.4922 32.0547C78.5703 32.0234 78.625 31.9688 78.6562 31.8906C79.0938 31.4141 79.4297 31.1406 79.6641 31.0703C79.6953 31.0703 79.7461 31.0312 79.8164 30.9531C79.8945 30.875 79.957 30.8281 80.0039 30.8125L80.2617 30.6133L80.3672 30.6602H80.3906C80.4062 30.6602 80.4688 30.6211 80.5781 30.543C80.6875 30.4648 80.7656 30.4258 80.8125 30.4258C81.1094 30.4258 81.3516 30.5273 81.5391 30.7305C81.7344 30.9258 81.832 31.0781 81.832 31.1875L81.7734 31.457L81.8555 31.8203V32.0547L81.7969 32.3008C81.7969 32.3477 81.8281 32.4141 81.8906 32.5C81.9609 32.5859 81.9961 32.6445 81.9961 32.6758C81.9023 32.7773 81.8555 32.8438 81.8555 32.875L81.8789 33.0859L81.8203 33.7305C81.8203 33.7852 81.8711 33.875 81.9727 34C82.0195 33.9688 82.0859 33.9414 82.1719 33.918C82.2578 33.8945 82.3242 33.8711 82.3711 33.8477C82.418 33.8164 82.4414 33.8008 82.4414 33.8008C82.4414 33.793 82.4375 33.7891 82.4297 33.7891C82.4453 33.7891 82.4922 33.8047 82.5703 33.8359H82.6172C82.6797 33.8359 82.7148 33.7773 82.7227 33.6602C82.7305 33.5352 82.8086 33.4336 82.957 33.3555L83.2383 33.3789C83.2539 33.3633 83.2852 33.3008 83.332 33.1914C83.3867 33.0742 83.5508 32.9062 83.8242 32.6875C84.1055 32.4609 84.3203 32.3477 84.4688 32.3477C84.5938 32.3477 84.6562 32.4023 84.6562 32.5117C84.6562 32.543 84.6406 32.625 84.6094 32.7578C84.6719 32.8672 84.7031 32.9609 84.7031 33.0391C84.7031 33.1875 84.5742 33.3477 84.3164 33.5195C84.0664 33.6914 83.875 33.9062 83.7422 34.1641L83.6953 34.2109L83.4609 34.1875C83.4453 34.1875 83.4062 34.25 83.3438 34.375C83.2891 34.4922 83.2227 34.5586 83.1445 34.5742C83.0664 34.5898 83.0117 34.6133 82.9805 34.6445L82.7344 34.7969C82.6875 34.8281 82.5312 34.9883 82.2656 35.2773C82.0078 35.5586 81.7891 35.6992 81.6094 35.6992C81.5312 35.6992 81.3906 35.6602 81.1875 35.582C80.9844 35.4961 80.8477 35.4102 80.7773 35.3242C80.707 35.2383 80.6055 35.1406 80.4727 35.0312C80.3477 34.9219 80.2852 34.7148 80.2852 34.4102C80.2852 34.3945 80.3047 34.3672 80.3438 34.3281C80.3906 34.2891 80.4141 34.2578 80.4141 34.2344C80.2344 34 80.1445 33.832 80.1445 33.7305C80.1445 33.6836 80.1523 33.6328 80.168 33.5781C80.1836 33.5234 80.1914 33.4727 80.1914 33.4258L80.168 33.0156L80.2148 32.8047L80.1914 32.6758L80.2617 32.0781C80.2617 31.9844 80.207 31.9375 80.0977 31.9375C80.0664 31.9375 80.0234 31.9688 79.9688 32.0312C79.9141 32.0938 79.8438 32.1445 79.7578 32.1836C79.6797 32.2148 79.5938 32.3242 79.5 32.5117C79.3594 32.5898 79.2617 32.668 79.207 32.7461C79.1602 32.8164 79.1211 32.8516 79.0898 32.8516C79.0742 32.8516 79.043 32.8438 78.9961 32.8281C78.9023 32.8906 78.8555 32.9609 78.8555 33.0391V33.0859L78.8789 33.1797C78.8789 33.25 78.8203 33.3164 78.7031 33.3789C78.5859 33.4414 78.4414 33.6016 78.2695 33.8594C78.1914 33.8594 78.1367 33.8672 78.1055 33.8828L77.9648 34.1641C77.8867 34.2109 77.8125 34.293 77.7422 34.4102L77.6016 34.4805C77.5469 34.582 77.4922 34.668 77.4375 34.7383L77.3672 34.8672C77.0312 35.2656 76.7969 35.4648 76.6641 35.4648C76.5312 35.4648 76.3711 35.2891 76.1836 34.9375C75.9961 34.5859 75.9023 34.3125 75.9023 34.1172L75.9492 33.6836C75.9492 33.668 75.918 33.6055 75.8555 33.4961V33.4492C75.8555 33.4336 75.8867 33.3438 75.9492 33.1797V32.8281C75.9492 32.8125 75.9414 32.7891 75.9258 32.7578V32.6992C75.9258 32.6836 75.957 32.6211 76.0195 32.5117L75.9492 32.1719L75.9961 31.9844L75.9727 31.5742L76.0195 31.2109C76.0195 31.1875 75.9961 31.1484 75.9492 31.0938C75.9102 31.0312 75.8828 31 75.8672 31C75.8125 31 75.6484 31.0898 75.375 31.2695C75.1094 31.4492 74.9297 31.5898 74.8359 31.6914C74.7422 31.793 74.6172 31.9141 74.4609 32.0547C74.2969 32.1328 74.1836 32.332 74.1211 32.6523C74.1211 32.668 74.1055 32.6758 74.0742 32.6758C74.0742 32.6602 74.0508 32.6445 74.0039 32.6289H73.957C73.918 32.6289 73.7969 32.7969 73.5938 33.1328L73.5469 33.1797L73.3242 33.1328C73.1367 33.1328 73.043 33.332 73.043 33.7305C73.043 33.8008 72.9922 33.8477 72.8906 33.8711C72.7969 33.8945 72.7227 33.9609 72.668 34.0703C72.6133 34.1797 72.5391 34.293 72.4453 34.4102C72.2656 34.4883 72.1641 34.5469 72.1406 34.5859C72.1406 34.5938 72.0547 34.7109 71.8828 34.9375C71.7109 35.1641 71.6172 35.2969 71.6016 35.3359C71.5859 35.375 71.5312 35.4219 71.4375 35.4766C71.3516 35.5234 71.3086 35.5664 71.3086 35.6055L71.3438 35.8047C71.3438 35.9297 71.2227 35.9922 70.9805 35.9922C70.5117 35.9922 70.2773 35.5039 70.2773 34.5273C70.2773 34.418 70.3242 34.2969 70.418 34.1641C70.5195 34.0234 70.6172 33.8555 70.7109 33.6602C70.8594 33.5117 71.0352 33.2969 71.2383 33.0156C71.4414 32.7344 71.5938 32.543 71.6953 32.4414L71.8477 32.1953C71.8477 32.1016 71.8672 32.0312 71.9062 31.9844C71.9453 31.9375 71.9648 31.8789 71.9648 31.8086C71.9648 31.6836 71.9336 31.6211 71.8711 31.6211C71.7227 31.6211 71.6055 31.6602 71.5195 31.7383C71.4336 31.8086 71.3359 31.8594 71.2266 31.8906C71.125 31.9219 71.0586 31.9766 71.0273 32.0547C70.918 32.1016 70.8008 32.2031 70.6758 32.3594C70.5586 32.5078 70.4805 32.6016 70.4414 32.6406C70.4023 32.6797 70.3633 32.7344 70.3242 32.8047C70.293 32.8672 70.25 32.9023 70.1953 32.9102C70.1406 32.918 70.0898 32.9453 70.043 32.9922C69.9961 33.0391 69.9219 33.0625 69.8203 33.0625C69.75 33.0625 69.6836 32.9922 69.6211 32.8516C69.5664 32.7031 69.5391 32.6133 69.5391 32.582C69.5391 32.0117 69.918 31.5195 70.6758 31.1055C70.7773 31.0508 70.8555 30.9961 70.9102 30.9414C70.9727 30.8867 71.0352 30.8438 71.0977 30.8125L71.1445 30.7305C71.207 30.6367 71.4414 30.5039 71.8477 30.332H72.0117L72.7969 30.1328C73.1328 30.0547 73.3008 30.4336 73.3008 31.2695L73.2773 31.4805L73.3242 31.5742C73.457 31.4492 73.5898 31.3398 73.7227 31.2461C73.8633 31.1445 73.9648 31.0547 74.0273 30.9766C74.0898 30.8984 74.2109 30.8203 74.3906 30.7422ZM89.7188 26.1484L89.6484 25.6914V25.6211C89.6484 25.2539 89.7734 25.0508 90.0234 25.0117C90.0781 25.0039 90.2422 24.9531 90.5156 24.8594C90.6562 24.8906 90.8008 25.0156 90.9492 25.2344C91.1055 25.4453 91.1836 25.6328 91.1836 25.7969C91.1836 25.8125 91.1719 25.8477 91.1484 25.9023C91.125 25.957 91.1094 26.0625 91.1016 26.2188C91.0938 26.3672 91.0156 26.5 90.8672 26.6172C90.7266 26.7266 90.5742 26.7812 90.4102 26.7812C90.3008 26.7812 90.1602 26.707 89.9883 26.5586C89.8242 26.4023 89.7344 26.2656 89.7188 26.1484ZM84.6562 32.0078L84.8438 31.8438H84.9141C84.9688 31.8438 85.0508 31.7852 85.1602 31.668L85.2773 31.6211C85.4336 31.3867 85.5703 31.25 85.6875 31.2109L85.875 31.0703C85.9062 31.0391 85.9492 31.0117 86.0039 30.9883C86.0664 30.9648 86.1602 30.8906 86.2852 30.7656C86.418 30.6328 86.5234 30.5664 86.6016 30.5664C86.6797 30.5664 86.7422 30.5742 86.7891 30.5898C86.8359 30.4961 86.9297 30.4062 87.0703 30.3203C87.2109 30.2266 87.3242 30.1172 87.4102 29.9922L87.5625 29.9219C87.6875 29.8594 87.7969 29.7812 87.8906 29.6875C87.9922 29.5859 88.1211 29.5352 88.2773 29.5352C88.5039 29.5352 88.7383 29.6523 88.9805 29.8867C89.2305 30.1133 89.3555 30.332 89.3555 30.543L89.1562 31.457C89.0234 32.1289 88.875 32.4805 88.7109 32.5117L88.6641 32.7578C88.5547 32.8359 88.5 32.8984 88.5 32.9453L88.5703 33.2266C88.5703 33.2656 88.5273 33.3242 88.4414 33.4023C88.4258 33.4023 88.418 33.4258 88.418 33.4727V33.9531C88.418 34.0391 88.3633 34.1094 88.2539 34.1641C88.2695 34.1797 88.293 34.1953 88.3242 34.2109C88.3711 34.1641 88.4766 34.1406 88.6406 34.1406L88.8281 34.1641L89.0859 33.9062C89.1406 33.8906 89.2148 33.8555 89.3086 33.8008C89.4102 33.7383 89.5781 33.6602 89.8125 33.5664L91.3477 32.3945C91.5586 32.1836 91.7188 32.0781 91.8281 32.0781C91.9453 32.0781 92.0039 32.1523 92.0039 32.3008C92.0039 32.4727 91.9688 32.6172 91.8984 32.7344C91.8359 32.8438 91.7773 32.9805 91.7227 33.1445C91.668 33.3008 91.6016 33.4102 91.5234 33.4727C91.4531 33.5352 91.3945 33.6055 91.3477 33.6836C91.3008 33.7539 91.1719 33.8594 90.9609 34C90.7578 34.1406 90.582 34.2852 90.4336 34.4336C90.293 34.5742 90.1758 34.6758 90.082 34.7383L89.5781 35.1016L89.5078 35.2188C89.4922 35.2344 89.418 35.2695 89.2852 35.3242C89.1602 35.3711 89.0469 35.4336 88.9453 35.5117L88.7344 35.6289C88.6875 35.6602 88.6094 35.6797 88.5 35.6875C88.3984 35.6953 88.3086 35.7422 88.2305 35.8281C88.1523 35.9062 88.0898 35.9453 88.043 35.9453L87.8672 35.9219L87.6328 35.9922C87.5 35.9922 87.3359 35.9141 87.1406 35.7578C86.9531 35.5938 86.8594 35.4219 86.8594 35.2422V35.1719L86.8828 35.0078C86.8828 34.9766 86.8594 34.8984 86.8125 34.7734C86.7656 34.6406 86.7422 34.5664 86.7422 34.5508L86.7656 34.3867L86.7422 34.3164C86.7422 34.1055 86.7578 33.9727 86.7891 33.918C86.8203 33.8633 86.8438 33.7891 86.8594 33.6953C86.875 33.5938 86.8906 33.5117 86.9062 33.4492L86.9648 33.1562C86.9961 33.0625 87.0352 33 87.082 32.9688C87.0977 32.9062 87.1289 32.8008 87.1758 32.6523L87.2227 32.4414L87.3398 32.2773C87.4023 32.2148 87.4375 32.1328 87.4453 32.0312C87.4609 31.9219 87.5039 31.8086 87.5742 31.6914C87.6445 31.5742 87.6797 31.5039 87.6797 31.4805C87.6797 31.3867 87.6328 31.3398 87.5391 31.3398C87.5078 31.3398 87.4102 31.4023 87.2461 31.5273L87.0352 31.457C87.0195 31.457 86.9766 31.4961 86.9062 31.5742C86.9062 31.6055 86.8711 31.6289 86.8008 31.6445C86.7305 31.6602 86.6641 31.7188 86.6016 31.8203L86.5078 31.8438L86.3555 31.7734H86.3086C86.2305 31.7734 86.1836 31.8594 86.168 32.0312C86.082 32.1562 85.9688 32.2383 85.8281 32.2773L85.5703 32.3477C85.4844 32.3789 85.4219 32.4492 85.3828 32.5586C85.3438 32.668 85.2656 32.7695 85.1484 32.8633C85.0312 32.9492 84.9531 32.9922 84.9141 32.9922C84.6953 32.9922 84.5859 32.8711 84.5859 32.6289L84.6797 32.0781L84.6562 32.0078ZM100.828 30.7656L100.898 30.707H100.969C101.016 30.6602 101.039 30.6289 101.039 30.6133C101.039 30.582 101.027 30.5508 101.004 30.5195C100.98 30.4883 100.969 30.457 100.969 30.4258C100.969 30.2617 101.043 30.1484 101.191 30.0859C101.168 30.0234 101.156 29.9297 101.156 29.8047C101.156 29.7344 101.188 29.6641 101.25 29.5938C101.32 29.5234 101.383 29.3906 101.438 29.1953C101.492 28.9922 101.609 28.875 101.789 28.8438V28.7969L101.742 28.668C101.742 28.6211 101.773 28.5508 101.836 28.457V28.3398C101.836 28.2383 101.887 28.1758 101.988 28.1523C102.09 28.1289 102.141 28.1016 102.141 28.0703C102.141 27.9766 102.207 27.8633 102.34 27.7305L102.293 27.543C102.293 27.4805 102.363 27.3945 102.504 27.2852C102.762 27.0273 102.891 26.832 102.891 26.6992V26.582C102.891 26.5117 103.004 26.3828 103.23 26.1953C103.23 26.1797 103.238 26.1719 103.254 26.1719L103.418 26.1953C103.449 26.0859 103.473 25.9727 103.488 25.8555C103.504 25.7305 103.656 25.543 103.945 25.293L103.969 25.2109C104.078 25.0625 104.141 24.9844 104.156 24.9766L104.262 24.9531C104.355 24.7891 104.418 24.668 104.449 24.5898C104.48 24.5117 104.52 24.4688 104.566 24.4609C104.613 24.4531 104.656 24.4258 104.695 24.3789C104.742 24.332 104.805 24.3008 104.883 24.2852C104.984 24.1523 105.078 24.0156 105.164 23.875C105.258 23.7344 105.387 23.6133 105.551 23.5117C105.582 23.2227 105.664 23.0781 105.797 23.0781L105.961 23.1016C106.023 22.9219 106.23 22.6992 106.582 22.4336L107.016 22.1172H107.086C107.125 22.1016 107.184 22.0391 107.262 21.9297L107.426 21.8125C107.441 21.6641 107.512 21.5898 107.637 21.5898H107.742C107.898 21.3477 108.168 21.1875 108.551 21.1094C108.598 21.125 108.656 21.1406 108.727 21.1562C108.805 21.1719 108.867 21.2305 108.914 21.332L109.031 21.543C109.062 21.6523 109.094 21.707 109.125 21.707L109.277 21.5664C109.754 21.4805 110.184 21.3047 110.566 21.0391C110.699 21.0703 110.785 21.0859 110.824 21.0859C110.863 21.0859 110.906 21.1016 110.953 21.1328H111C111.016 21.1328 111.07 21.1055 111.164 21.0508C111.266 20.9961 111.324 20.9688 111.34 20.9688L111.727 20.9922L112.078 21.0625L112.57 21.0391C112.727 21.0391 112.934 21.1367 113.191 21.332C113.277 21.5117 113.367 21.6172 113.461 21.6484C113.562 21.6719 113.699 21.8867 113.871 22.293C114.051 22.6914 114.141 22.9531 114.141 23.0781V23.2773L114.094 23.6523L114.117 23.9219C114.117 24.0469 114.086 24.1484 114.023 24.2266C113.961 24.2969 113.93 24.4102 113.93 24.5664C113.93 24.8008 113.832 25.1211 113.637 25.5273C113.449 25.9258 113.355 26.1914 113.355 26.3242C113.168 26.8164 113.023 27.0625 112.922 27.0625L112.664 27.7305C112.602 27.8867 112.527 27.9922 112.441 28.0469C112.363 28.0938 112.293 28.1406 112.23 28.1875L112.254 28.5273C112.254 28.6055 112.148 28.7266 111.938 28.8906C111.875 29.0312 111.809 29.1719 111.738 29.3125C111.676 29.4453 111.59 29.5508 111.48 29.6289C111.207 29.9883 111.023 30.2773 110.93 30.4961C110.898 30.5273 110.828 30.582 110.719 30.6602C110.523 30.9023 110.363 31.1211 110.238 31.3164C110.121 31.5039 110 31.6445 109.875 31.7383L109.711 31.9141C109.641 31.9922 109.551 32.0469 109.441 32.0781C109.457 32.1094 109.465 32.1484 109.465 32.1953C109.465 32.3594 109.375 32.4961 109.195 32.6055C109.023 32.707 108.914 32.7891 108.867 32.8516L108.363 33.332C108.316 33.3633 108.254 33.4336 108.176 33.543C108.105 33.6523 108.031 33.7422 107.953 33.8125L107.789 34.0703C107.266 34.4219 106.992 34.5977 106.969 34.5977C106.945 34.6133 106.898 34.6953 106.828 34.8438L106.605 34.9141C106.48 35.1719 106.305 35.3242 106.078 35.3711L105.961 35.418C105.945 35.4492 105.91 35.4766 105.855 35.5C105.801 35.5234 105.75 35.5508 105.703 35.582C105.664 35.6055 105.555 35.6445 105.375 35.6992L105.117 35.7812L105 35.7578C104.969 35.9297 104.875 36.0156 104.719 36.0156H104.59C104.559 36.0391 104.488 36.0703 104.379 36.1094L104.332 36.1328C104.277 36.25 104.246 36.3086 104.238 36.3086L103.875 36.2852C103.75 36.3477 103.668 36.3789 103.629 36.3789C103.613 36.3789 103.574 36.3711 103.512 36.3555L103.395 36.4727C103.285 36.4102 103.223 36.3789 103.207 36.3789L103.125 36.4023C102.938 36.4492 102.797 36.4727 102.703 36.4727L102.551 36.4258C102.332 36.3164 102.203 36.2617 102.164 36.2617L101.719 36.2852C101.703 36.2852 101.648 36.2383 101.555 36.1445C101.469 36.043 101.344 35.9375 101.18 35.8281C101.016 35.7188 100.852 35.4844 100.688 35.125C100.523 34.7656 100.441 34.5352 100.441 34.4336L100.371 33.7656L100.395 33.5664L100.324 32.9219C100.324 32.7266 100.402 32.5195 100.559 32.3008C100.543 32.1836 100.535 32.0938 100.535 32.0312V31.8672L100.559 31.5977C100.559 31.4805 100.617 31.3711 100.734 31.2695L100.711 30.9766C100.75 30.9297 100.789 30.8594 100.828 30.7656ZM106.559 33.2617L106.582 33.2031V33.0625C106.582 32.9297 106.68 32.8516 106.875 32.8281C106.969 32.7266 107.055 32.6016 107.133 32.4531C107.219 32.2969 107.285 32.2188 107.332 32.2188H107.449C107.496 32.2188 107.52 32.2031 107.52 32.1719L107.496 31.9844C107.543 31.9062 107.641 31.7891 107.789 31.6328C107.945 31.4688 108.098 31.3008 108.246 31.1289C108.395 30.957 108.523 30.7852 108.633 30.6133C108.742 30.4414 108.848 30.2969 108.949 30.1797C109.051 30.0547 109.125 29.9531 109.172 29.875C109.227 29.7969 109.332 29.7148 109.488 29.6289L109.535 29.582V29.3477C109.535 29.332 109.625 29.1875 109.805 28.9141C110.078 28.7031 110.227 28.5273 110.25 28.3867C110.273 28.2383 110.332 28.1016 110.426 27.9766C110.52 27.8438 110.582 27.7305 110.613 27.6367C110.746 27.5586 110.812 27.5039 110.812 27.4727L110.906 27.3086C110.969 27.1758 111.016 27.0625 111.047 26.9688L111.246 26.7812C111.355 26.6328 111.422 26.4844 111.445 26.3359C111.469 26.1797 111.523 26.082 111.609 26.043C111.703 26.0039 111.75 25.9688 111.75 25.9375C111.75 25.9219 111.734 25.875 111.703 25.7969V25.7383C111.703 25.6602 111.75 25.5742 111.844 25.4805C112.031 25.0977 112.137 24.8555 112.16 24.7539C112.191 24.6445 112.254 24.5195 112.348 24.3789L112.301 24.0625C112.301 24.0156 112.348 23.9375 112.441 23.8281C112.379 23.6016 112.348 23.4805 112.348 23.4648C112.348 23.418 112.387 23.3047 112.465 23.125L112.441 22.8906L112.488 22.7383C112.488 22.6133 112.418 22.4805 112.277 22.3398C112.277 22.0977 112.059 21.9766 111.621 21.9766L111.41 22L110.953 21.9297C110.43 22.1562 110.078 22.2695 109.898 22.2695C109.805 22.2695 109.699 22.332 109.582 22.457C109.473 22.582 109.41 22.6445 109.395 22.6445L109.277 22.5977H109.23C109.176 22.5977 109.141 22.6641 109.125 22.7969C109.109 22.9219 109.035 23.0156 108.902 23.0781C108.777 23.1406 108.586 23.293 108.328 23.5352C108.07 23.7773 107.898 23.9688 107.812 24.1094C107.734 24.2422 107.637 24.3555 107.52 24.4492C107.402 24.5352 107.32 24.6758 107.273 24.8711C107.234 25.0586 107.164 25.2227 107.062 25.3633L106.898 25.6211V25.7969C106.898 25.8438 106.844 25.8984 106.734 25.9609L106.781 26.1016L106.758 26.2422L106.781 26.4414L106.734 26.7227L106.852 27.2617C106.852 27.8633 106.629 28.1641 106.184 28.1641C106.012 28.1641 105.879 28.1328 105.785 28.0703C105.699 28.0078 105.629 27.8359 105.574 27.5547C105.527 27.2656 105.504 27.0859 105.504 27.0156C105.504 27.0078 105.535 26.8828 105.598 26.6406C105.668 26.3906 105.727 26.2344 105.773 26.1719C105.82 26.1094 105.844 26.0547 105.844 26.0078C105.844 25.9922 105.836 25.9766 105.82 25.9609C105.992 25.8359 106.098 25.6914 106.137 25.5273C106.184 25.3555 106.262 25.1797 106.371 25C106.629 24.7031 106.918 24.2383 107.238 23.6055C107.332 23.5117 107.492 23.375 107.719 23.1953C107.727 23.125 107.789 23.0312 107.906 22.9141L108.07 22.6914L108.34 22.457C108.465 22.3789 108.559 22.2969 108.621 22.2109C108.387 22.25 108.188 22.332 108.023 22.457L107.648 22.75C107.531 22.8516 107.438 22.918 107.367 22.9492C107.297 22.9727 107.223 23.043 107.145 23.1602C107.074 23.2695 106.996 23.3633 106.91 23.4414C106.824 23.5195 106.73 23.625 106.629 23.7578C106.535 23.8828 106.457 23.9609 106.395 23.9922C106.27 24.0234 106.188 24.1367 106.148 24.332C106.102 24.4102 106.031 24.5039 105.938 24.6133L105.867 24.8125C105.836 24.8594 105.785 24.9141 105.715 24.9766C105.652 25.0391 105.582 25.125 105.504 25.2344C105.316 25.3516 105.215 25.4102 105.199 25.4102C105.215 25.457 105.223 25.5117 105.223 25.5742C105.223 25.6055 105.148 25.7344 105 25.9609C104.859 26.1875 104.758 26.3867 104.695 26.5586C104.641 26.7227 104.574 26.8281 104.496 26.875C104.418 26.9219 104.336 27.0703 104.25 27.3203C104.172 27.5625 104.039 27.8086 103.852 28.0586C103.672 28.3086 103.57 28.4648 103.547 28.5273C103.523 28.5898 103.434 28.7266 103.277 28.9375C103.184 29.1406 103.125 29.3008 103.102 29.418L102.914 29.6055L102.645 30.4961C102.645 30.5195 102.605 30.5664 102.527 30.6367C102.488 30.8711 102.426 31.0234 102.34 31.0938C102.34 31.1562 102.324 31.2227 102.293 31.293L102.199 31.6211L102 31.8438V31.8906L102.047 32.0078V32.0547C102.047 32.1172 102.004 32.2266 101.918 32.3828C101.832 32.5312 101.785 32.7227 101.777 32.957C101.77 33.1914 101.742 33.3516 101.695 33.4375C101.656 33.5234 101.633 33.6172 101.625 33.7188C101.617 33.8125 101.605 33.8828 101.59 33.9297L101.637 34.1172L101.59 34.4805C101.59 34.4883 101.605 34.5273 101.637 34.5977C101.676 34.6602 101.695 34.6992 101.695 34.7148L101.637 34.8672C101.621 34.8828 101.613 34.8984 101.613 34.9141C101.613 35.1875 101.746 35.375 102.012 35.4766C102.277 35.5781 102.488 35.6289 102.645 35.6289C102.777 35.6289 103.008 35.5703 103.336 35.4531C103.664 35.3359 103.879 35.2266 103.98 35.125C104.082 35.0156 104.191 34.9375 104.309 34.8906C104.434 34.8438 104.543 34.7852 104.637 34.7148C104.809 34.4961 104.938 34.3789 105.023 34.3633C105.117 34.3477 105.254 34.25 105.434 34.0703L105.574 34C105.66 33.8438 105.711 33.7656 105.727 33.7656L105.891 33.6602C106 33.457 106.078 33.3555 106.125 33.3555L106.301 33.3789C106.316 33.3789 106.332 33.3711 106.348 33.3555C106.363 33.3398 106.434 33.3086 106.559 33.2617ZM120.164 33.0391L120.352 32.875C120.469 32.875 120.539 32.8242 120.562 32.7227C120.586 32.6133 120.668 32.5273 120.809 32.4648C120.957 32.4023 121.094 32.2773 121.219 32.0898C121.344 31.8945 121.473 31.7969 121.605 31.7969C121.652 31.7969 121.707 31.8359 121.77 31.9141C121.832 31.9922 121.863 32.0547 121.863 32.1016C121.863 32.3594 121.785 32.625 121.629 32.8984L121.582 33.2266L121.5 33.3789C121.383 33.4414 121.305 33.5078 121.266 33.5781C121.234 33.6484 121.145 33.7344 120.996 33.8359L120.879 34C120.707 34.0547 120.59 34.1445 120.527 34.2695C120.473 34.3945 120.391 34.4648 120.281 34.4805C120.18 34.4961 120.066 34.5742 119.941 34.7148C119.863 34.7539 119.77 34.7891 119.66 34.8203L119.637 34.9375C119.559 35.0156 119.434 35.0781 119.262 35.125C119.098 35.1719 118.973 35.2188 118.887 35.2656C118.809 35.3047 118.754 35.3242 118.723 35.3242C118.574 35.3242 118.438 35.2969 118.312 35.2422C118.188 35.1797 118.059 35.1406 117.926 35.125C117.879 35.0781 117.852 35.0273 117.844 34.9727C117.836 34.918 117.797 34.8477 117.727 34.7617C117.656 34.668 117.621 34.543 117.621 34.3867L117.668 34.1641C117.668 34.1328 117.648 34.0938 117.609 34.0469C117.57 34 117.551 33.9609 117.551 33.9297C117.551 33.8984 117.559 33.875 117.574 33.8594C117.59 33.8438 117.598 33.8203 117.598 33.7891C117.598 33.75 117.59 33.707 117.574 33.6602C117.559 33.6133 117.551 33.5742 117.551 33.543L117.621 32.9688C117.621 32.9219 117.605 32.8984 117.574 32.8984C117.543 32.8984 117.484 32.9375 117.398 33.0156C117.32 33.0938 117.227 33.1328 117.117 33.1328C117.055 33.1797 117.004 33.2773 116.965 33.4258C116.902 33.5039 116.824 33.5742 116.73 33.6367L116.684 33.707C116.668 33.7617 116.609 33.8086 116.508 33.8477C116.406 33.8789 116.336 33.9219 116.297 33.9766L116.18 34.0938L115.957 34.0703C115.941 34.0859 115.898 34.1562 115.828 34.2812C115.758 34.3984 115.668 34.4961 115.559 34.5742L114.668 35.3008C114.574 35.3633 114.438 35.4414 114.258 35.5352L114.188 35.6055C113.562 36.0195 113.121 36.2266 112.863 36.2266C112.652 36.2266 112.406 36.168 112.125 36.0508C111.844 35.9336 111.691 35.793 111.668 35.6289L111.551 35.1484C111.48 35.0391 111.445 34.8867 111.445 34.6914C111.445 34.5977 111.453 34.5352 111.469 34.5039V34.4336L111.445 34.0469C111.445 33.9531 111.52 33.9062 111.668 33.9062L111.645 33.5898C111.645 33.5586 111.711 33.4375 111.844 33.2266C111.984 33.0078 112.078 32.8828 112.125 32.8516L112.242 32.6992C112.234 32.6055 112.289 32.5078 112.406 32.4062C112.523 32.2969 112.617 32.1875 112.688 32.0781C112.758 31.9688 112.891 31.8477 113.086 31.7148L113.438 31.3633C113.711 31.0898 114.008 30.8711 114.328 30.707C114.375 30.6914 114.469 30.6133 114.609 30.4727C114.758 30.332 114.922 30.2305 115.102 30.168C115.289 30.0977 115.469 30.0117 115.641 29.9102C115.82 29.8086 115.961 29.7578 116.062 29.7578H116.156C116.188 29.7578 116.395 29.6602 116.777 29.4648H116.848C116.879 29.4648 116.953 29.4961 117.07 29.5586H117.094L117.281 29.4648C117.312 29.4492 117.352 29.4414 117.398 29.4414C117.883 29.4414 118.148 29.7773 118.195 30.4492C118.211 30.5898 118.25 30.6602 118.312 30.6602C118.391 30.6602 118.5 30.5195 118.641 30.2383C118.789 29.9492 119.098 29.8047 119.566 29.8047C119.902 29.8047 120.07 30.0195 120.07 30.4492C120.07 30.957 119.844 31.4375 119.391 31.8906C119.359 31.9531 119.336 32.0234 119.32 32.1016L119.156 32.582V32.6055C119.156 32.6523 119.121 32.7188 119.051 32.8047C118.988 32.8828 118.957 32.9531 118.957 33.0156L118.98 33.3086L118.934 33.6367C118.934 33.7852 118.961 33.8828 119.016 33.9297C119.266 33.8672 119.445 33.7656 119.555 33.625C119.672 33.4766 119.754 33.3945 119.801 33.3789L119.918 33.332C119.988 33.2148 120.07 33.1172 120.164 33.0391ZM116.273 33.0391C116.305 32.8672 116.398 32.7383 116.555 32.6523C116.719 32.5586 116.816 32.4648 116.848 32.3711C116.996 32.2617 117.207 32.0664 117.48 31.7852C117.762 31.5039 117.902 31.332 117.902 31.2695C117.902 31.2461 117.887 31.2344 117.855 31.2344H117.832L117.738 31.293L117.527 31.2695L117.305 31.293L117.141 31.2109L116.988 31.2344L116.754 31.1875C116.629 31.1875 116.52 31.2148 116.426 31.2695C116.34 31.3164 116.168 31.3711 115.91 31.4336C115.66 31.4961 115.434 31.6055 115.23 31.7617C115.027 31.9102 114.879 31.9844 114.785 31.9844C114.73 32.1016 114.547 32.2695 114.234 32.4883C114.047 32.5508 113.926 32.6875 113.871 32.8984C113.668 33.0625 113.566 33.1562 113.566 33.1797L113.484 33.3789C113.422 33.4336 113.344 33.4805 113.25 33.5195C113.156 33.5508 113.102 33.6328 113.086 33.7656C113.07 33.8906 113.016 34.0078 112.922 34.1172C112.836 34.2188 112.793 34.3008 112.793 34.3633C112.793 34.7461 112.867 34.9375 113.016 34.9375C113.078 34.9375 113.207 34.8984 113.402 34.8203C113.605 34.7344 113.723 34.6758 113.754 34.6445C113.785 34.6133 113.848 34.582 113.941 34.5508L114.164 34.4336C114.195 34.4023 114.23 34.3828 114.27 34.375C114.309 34.3672 114.348 34.3438 114.387 34.3047C114.426 34.2578 114.496 34.2109 114.598 34.1641C114.699 34.1094 114.777 34.0391 114.832 33.9531C114.965 33.875 115.18 33.7539 115.477 33.5898L115.723 33.4023C115.895 33.3242 116 33.2578 116.039 33.2031C116.078 33.1484 116.156 33.0938 116.273 33.0391ZM123.422 30.4727L123.586 30.1797C123.633 30.1094 123.691 30.0391 123.762 29.9688C123.84 29.8906 123.922 29.6992 124.008 29.3945C124.094 29.082 124.188 28.8672 124.289 28.75C124.398 28.6328 124.555 28.5742 124.758 28.5742C124.875 28.5742 125.027 28.6328 125.215 28.75C125.41 28.8594 125.598 29.1992 125.777 29.7695C125.965 30.3398 126.059 30.7422 126.059 30.9766C126.059 31.0703 126.086 31.1914 126.141 31.3398C126.195 31.4805 126.23 31.5898 126.246 31.668C126.184 31.8008 126.152 31.875 126.152 31.8906L126.176 32.3711L126.035 32.7578V33.0391C125.941 33.1953 125.895 33.293 125.895 33.332C125.895 33.3789 125.91 33.4258 125.941 33.4727C126.309 33.3164 126.531 33.1914 126.609 33.0977C126.688 32.9961 126.762 32.9336 126.832 32.9102C126.91 32.8867 127.035 32.7852 127.207 32.6055L127.43 32.4883C127.508 32.3945 127.574 32.3125 127.629 32.2422C127.684 32.1641 127.746 32.1094 127.816 32.0781C127.895 32.0469 127.984 31.9922 128.086 31.9141C128.188 31.8359 128.336 31.7461 128.531 31.6445L128.648 31.5039C128.766 31.3711 128.902 31.2656 129.059 31.1875C129.223 31.1094 129.312 31.0703 129.328 31.0703C129.383 31.0703 129.438 31.1445 129.492 31.293C129.555 31.4336 129.586 31.5742 129.586 31.7148C129.586 31.8477 129.508 31.9805 129.352 32.1133C129.203 32.2383 129.102 32.332 129.047 32.3945C128.992 32.457 128.867 32.5117 128.672 32.5586C128.656 32.5664 128.527 32.7266 128.285 33.0391L128.051 33.1797L127.934 33.332C127.918 33.3633 127.812 33.3945 127.617 33.4258C127.609 33.4258 127.59 33.4648 127.559 33.543C127.535 33.6211 127.453 33.6758 127.312 33.707C127.031 33.9648 126.887 34.1094 126.879 34.1406L126.633 34.1875C126.586 34.3359 126.547 34.4258 126.516 34.457C126.328 34.5039 126.223 34.582 126.199 34.6914C126.176 34.707 126.137 34.7227 126.082 34.7383L126.035 34.7734C125.855 34.9141 125.68 35 125.508 35.0312L125.238 35.1016L125.145 35.2422C125.145 35.2812 125.047 35.332 124.852 35.3945C124.664 35.457 124.523 35.5352 124.43 35.6289L124.23 35.7812C123.988 35.875 123.836 35.9609 123.773 36.0391H123.609C123.5 36.0391 123.328 36.1211 123.094 36.2852C122.859 36.4414 122.672 36.5195 122.531 36.5195C122.078 36.5195 121.766 36.4648 121.594 36.3555C121.43 36.2383 121.293 36.0977 121.184 35.9336C121.074 35.7617 120.977 35.625 120.891 35.5234C120.797 35.4219 120.75 35.3398 120.75 35.2773C120.75 35.2227 120.789 35.168 120.867 35.1133C120.938 35.0586 121.016 34.9492 121.102 34.7852C121.188 34.6133 121.406 34.5039 121.758 34.457C121.773 34.457 121.828 34.4336 121.922 34.3867C122.023 34.3398 122.105 34.3164 122.168 34.3164C122.246 34.3164 122.344 34.3867 122.461 34.5273C122.461 34.543 122.477 34.5508 122.508 34.5508L122.695 34.5273C122.781 34.5898 122.84 34.6211 122.871 34.6211C123.059 34.6211 123.258 34.5273 123.469 34.3398L123.516 34.3164H123.609C123.633 34.3164 123.672 34.25 123.727 34.1172L123.926 33.707L124.336 33.1797V33.0625C124.336 33.0391 124.359 32.9688 124.406 32.8516V32.6758C124.406 32.6055 124.453 32.5625 124.547 32.5469C124.641 32.5234 124.688 32.4727 124.688 32.3945L124.664 32.3008C124.602 32.2148 124.57 32.1484 124.57 32.1016L124.688 31.8672L124.664 31.6211L124.711 31.5273C124.68 31.418 124.664 31.3555 124.664 31.3398L124.711 31.0469C124.711 31.0391 124.688 30.9648 124.641 30.8242C124.602 30.6836 124.57 30.6133 124.547 30.6133C124.5 30.6133 124.352 30.7344 124.102 30.9766C123.852 31.2188 123.703 31.3906 123.656 31.4922C123.609 31.5938 123.508 31.6875 123.352 31.7734C123.203 31.8516 123.102 31.9414 123.047 32.043C122.992 32.1445 122.926 32.2031 122.848 32.2188L122.062 32.8516L121.207 33.4844C121.145 33.5547 121.105 33.5898 121.09 33.5898C120.801 33.5898 120.656 33.4297 120.656 33.1094C120.656 33.0078 120.715 32.8242 120.832 32.5586C120.887 32.5273 120.93 32.5039 120.961 32.4883C120.984 32.4727 120.996 32.4609 120.996 32.4531C120.996 32.4453 120.988 32.4414 120.973 32.4414L121.043 32.4883H121.066C121.355 32.293 121.543 32.1797 121.629 32.1484C121.715 32.1172 121.793 32.0312 121.863 31.8906L122.355 31.5391C122.48 31.4453 122.672 31.2734 122.93 31.0234C123.188 30.7734 123.352 30.5898 123.422 30.4727ZM133.008 26.1484L132.938 25.6914V25.6211C132.938 25.2539 133.062 25.0508 133.312 25.0117C133.367 25.0039 133.531 24.9531 133.805 24.8594C133.945 24.8906 134.09 25.0156 134.238 25.2344C134.395 25.4453 134.473 25.6328 134.473 25.7969C134.473 25.8125 134.461 25.8477 134.438 25.9023C134.414 25.957 134.398 26.0625 134.391 26.2188C134.383 26.3672 134.305 26.5 134.156 26.6172C134.016 26.7266 133.863 26.7812 133.699 26.7812C133.59 26.7812 133.449 26.707 133.277 26.5586C133.113 26.4023 133.023 26.2656 133.008 26.1484ZM127.945 32.0078L128.133 31.8438H128.203C128.258 31.8438 128.34 31.7852 128.449 31.668L128.566 31.6211C128.723 31.3867 128.859 31.25 128.977 31.2109L129.164 31.0703C129.195 31.0391 129.238 31.0117 129.293 30.9883C129.355 30.9648 129.449 30.8906 129.574 30.7656C129.707 30.6328 129.812 30.5664 129.891 30.5664C129.969 30.5664 130.031 30.5742 130.078 30.5898C130.125 30.4961 130.219 30.4062 130.359 30.3203C130.5 30.2266 130.613 30.1172 130.699 29.9922L130.852 29.9219C130.977 29.8594 131.086 29.7812 131.18 29.6875C131.281 29.5859 131.41 29.5352 131.566 29.5352C131.793 29.5352 132.027 29.6523 132.27 29.8867C132.52 30.1133 132.645 30.332 132.645 30.543L132.445 31.457C132.312 32.1289 132.164 32.4805 132 32.5117L131.953 32.7578C131.844 32.8359 131.789 32.8984 131.789 32.9453L131.859 33.2266C131.859 33.2656 131.816 33.3242 131.73 33.4023C131.715 33.4023 131.707 33.4258 131.707 33.4727V33.9531C131.707 34.0391 131.652 34.1094 131.543 34.1641C131.559 34.1797 131.582 34.1953 131.613 34.2109C131.66 34.1641 131.766 34.1406 131.93 34.1406L132.117 34.1641L132.375 33.9062C132.43 33.8906 132.504 33.8555 132.598 33.8008C132.699 33.7383 132.867 33.6602 133.102 33.5664L134.637 32.3945C134.848 32.1836 135.008 32.0781 135.117 32.0781C135.234 32.0781 135.293 32.1523 135.293 32.3008C135.293 32.4727 135.258 32.6172 135.188 32.7344C135.125 32.8438 135.066 32.9805 135.012 33.1445C134.957 33.3008 134.891 33.4102 134.812 33.4727C134.742 33.5352 134.684 33.6055 134.637 33.6836C134.59 33.7539 134.461 33.8594 134.25 34C134.047 34.1406 133.871 34.2852 133.723 34.4336C133.582 34.5742 133.465 34.6758 133.371 34.7383L132.867 35.1016L132.797 35.2188C132.781 35.2344 132.707 35.2695 132.574 35.3242C132.449 35.3711 132.336 35.4336 132.234 35.5117L132.023 35.6289C131.977 35.6602 131.898 35.6797 131.789 35.6875C131.688 35.6953 131.598 35.7422 131.52 35.8281C131.441 35.9062 131.379 35.9453 131.332 35.9453L131.156 35.9219L130.922 35.9922C130.789 35.9922 130.625 35.9141 130.43 35.7578C130.242 35.5938 130.148 35.4219 130.148 35.2422V35.1719L130.172 35.0078C130.172 34.9766 130.148 34.8984 130.102 34.7734C130.055 34.6406 130.031 34.5664 130.031 34.5508L130.055 34.3867L130.031 34.3164C130.031 34.1055 130.047 33.9727 130.078 33.918C130.109 33.8633 130.133 33.7891 130.148 33.6953C130.164 33.5938 130.18 33.5117 130.195 33.4492L130.254 33.1562C130.285 33.0625 130.324 33 130.371 32.9688C130.387 32.9062 130.418 32.8008 130.465 32.6523L130.512 32.4414L130.629 32.2773C130.691 32.2148 130.727 32.1328 130.734 32.0312C130.75 31.9219 130.793 31.8086 130.863 31.6914C130.934 31.5742 130.969 31.5039 130.969 31.4805C130.969 31.3867 130.922 31.3398 130.828 31.3398C130.797 31.3398 130.699 31.4023 130.535 31.5273L130.324 31.457C130.309 31.457 130.266 31.4961 130.195 31.5742C130.195 31.6055 130.16 31.6289 130.09 31.6445C130.02 31.6602 129.953 31.7188 129.891 31.8203L129.797 31.8438L129.645 31.7734H129.598C129.52 31.7734 129.473 31.8594 129.457 32.0312C129.371 32.1562 129.258 32.2383 129.117 32.2773L128.859 32.3477C128.773 32.3789 128.711 32.4492 128.672 32.5586C128.633 32.668 128.555 32.7695 128.438 32.8633C128.32 32.9492 128.242 32.9922 128.203 32.9922C127.984 32.9922 127.875 32.8711 127.875 32.6289L127.969 32.0781L127.945 32.0078ZM137.086 30.4727L137.25 30.1797C137.297 30.1094 137.355 30.0391 137.426 29.9688C137.504 29.8906 137.586 29.6992 137.672 29.3945C137.758 29.082 137.852 28.8672 137.953 28.75C138.062 28.6328 138.219 28.5742 138.422 28.5742C138.539 28.5742 138.691 28.6328 138.879 28.75C139.074 28.8594 139.262 29.1992 139.441 29.7695C139.629 30.3398 139.723 30.7422 139.723 30.9766C139.723 31.0703 139.75 31.1914 139.805 31.3398C139.859 31.4805 139.895 31.5898 139.91 31.668C139.848 31.8008 139.816 31.875 139.816 31.8906L139.84 32.3711L139.699 32.7578V33.0391C139.605 33.1953 139.559 33.293 139.559 33.332C139.559 33.3789 139.574 33.4258 139.605 33.4727C139.973 33.3164 140.195 33.1914 140.273 33.0977C140.352 32.9961 140.426 32.9336 140.496 32.9102C140.574 32.8867 140.699 32.7852 140.871 32.6055L141.094 32.4883C141.172 32.3945 141.238 32.3125 141.293 32.2422C141.348 32.1641 141.41 32.1094 141.48 32.0781C141.559 32.0469 141.648 31.9922 141.75 31.9141C141.852 31.8359 142 31.7461 142.195 31.6445L142.312 31.5039C142.43 31.3711 142.566 31.2656 142.723 31.1875C142.887 31.1094 142.977 31.0703 142.992 31.0703C143.047 31.0703 143.102 31.1445 143.156 31.293C143.219 31.4336 143.25 31.5742 143.25 31.7148C143.25 31.8477 143.172 31.9805 143.016 32.1133C142.867 32.2383 142.766 32.332 142.711 32.3945C142.656 32.457 142.531 32.5117 142.336 32.5586C142.32 32.5664 142.191 32.7266 141.949 33.0391L141.715 33.1797L141.598 33.332C141.582 33.3633 141.477 33.3945 141.281 33.4258C141.273 33.4258 141.254 33.4648 141.223 33.543C141.199 33.6211 141.117 33.6758 140.977 33.707C140.695 33.9648 140.551 34.1094 140.543 34.1406L140.297 34.1875C140.25 34.3359 140.211 34.4258 140.18 34.457C139.992 34.5039 139.887 34.582 139.863 34.6914C139.84 34.707 139.801 34.7227 139.746 34.7383L139.699 34.7734C139.52 34.9141 139.344 35 139.172 35.0312L138.902 35.1016L138.809 35.2422C138.809 35.2812 138.711 35.332 138.516 35.3945C138.328 35.457 138.188 35.5352 138.094 35.6289L137.895 35.7812C137.652 35.875 137.5 35.9609 137.438 36.0391H137.273C137.164 36.0391 136.992 36.1211 136.758 36.2852C136.523 36.4414 136.336 36.5195 136.195 36.5195C135.742 36.5195 135.43 36.4648 135.258 36.3555C135.094 36.2383 134.957 36.0977 134.848 35.9336C134.738 35.7617 134.641 35.625 134.555 35.5234C134.461 35.4219 134.414 35.3398 134.414 35.2773C134.414 35.2227 134.453 35.168 134.531 35.1133C134.602 35.0586 134.68 34.9492 134.766 34.7852C134.852 34.6133 135.07 34.5039 135.422 34.457C135.438 34.457 135.492 34.4336 135.586 34.3867C135.688 34.3398 135.77 34.3164 135.832 34.3164C135.91 34.3164 136.008 34.3867 136.125 34.5273C136.125 34.543 136.141 34.5508 136.172 34.5508L136.359 34.5273C136.445 34.5898 136.504 34.6211 136.535 34.6211C136.723 34.6211 136.922 34.5273 137.133 34.3398L137.18 34.3164H137.273C137.297 34.3164 137.336 34.25 137.391 34.1172L137.59 33.707L138 33.1797V33.0625C138 33.0391 138.023 32.9688 138.07 32.8516V32.6758C138.07 32.6055 138.117 32.5625 138.211 32.5469C138.305 32.5234 138.352 32.4727 138.352 32.3945L138.328 32.3008C138.266 32.2148 138.234 32.1484 138.234 32.1016L138.352 31.8672L138.328 31.6211L138.375 31.5273C138.344 31.418 138.328 31.3555 138.328 31.3398L138.375 31.0469C138.375 31.0391 138.352 30.9648 138.305 30.8242C138.266 30.6836 138.234 30.6133 138.211 30.6133C138.164 30.6133 138.016 30.7344 137.766 30.9766C137.516 31.2188 137.367 31.3906 137.32 31.4922C137.273 31.5938 137.172 31.6875 137.016 31.7734C136.867 31.8516 136.766 31.9414 136.711 32.043C136.656 32.1445 136.59 32.2031 136.512 32.2188L135.727 32.8516L134.871 33.4844C134.809 33.5547 134.77 33.5898 134.754 33.5898C134.465 33.5898 134.32 33.4297 134.32 33.1094C134.32 33.0078 134.379 32.8242 134.496 32.5586C134.551 32.5273 134.594 32.5039 134.625 32.4883C134.648 32.4727 134.66 32.4609 134.66 32.4531C134.66 32.4453 134.652 32.4414 134.637 32.4414L134.707 32.4883H134.73C135.02 32.293 135.207 32.1797 135.293 32.1484C135.379 32.1172 135.457 32.0312 135.527 31.8906L136.02 31.5391C136.145 31.4453 136.336 31.2734 136.594 31.0234C136.852 30.7734 137.016 30.5898 137.086 30.4727Z" fill="#B100A0"/>
<g clip-path="url(#clip0_103_529)">
<path d="M8.91551 10.4865C6.90677 11.034 5.15262 11.9414 4.32023 12.4693C4.32023 12.4693 12.937 11.6595 15.1472 17.1655C6.46452 9.81361 2.55925 22.5651 2.55925 22.5651C3.88347 21.8098 7.66488 19.6079 10.5137 19.346C12.4629 19.1668 14.732 20.3695 14.6479 20.3692C10.4999 22.6516 8.74076 44.3054 10.3688 45.5894C11.7658 46.5305 12.7229 45.8253 13.6244 44.9164C13.0309 40.5863 12.2334 21.1036 17.6805 21.234C17.6813 21.2341 17.6819 21.2334 17.6827 21.2335C18.1468 21.2651 18.6174 21.4125 18.7437 21.7967C18.9843 22.5285 18.83 23.8712 19.1693 24.6841C19.9561 26.5706 20.5217 27.1486 21.2619 27.682C22.3923 26.5773 22.9429 23.539 22.8316 22.0699C24.164 22.2726 26.405 22.9684 29.1725 27.0414C28.8621 22.613 26.7935 19.6086 22.528 19.1714C24.01 17.9979 32.2876 19.7089 33.7255 21.5135C33.6047 17.5971 26.2686 14.7309 21.2308 16.3375C22.1406 15.8202 23.2954 15.8304 24.1165 14.8031C25.2182 13.4247 26.5857 12.1253 27.8267 10.7906C22.2258 9.95288 17.8853 12.2706 18.1644 14.6163C16.5652 9.67271 12.3627 9.54727 8.91546 10.4866L8.91551 10.4865Z" fill="#222222"/>
</g>
<defs>
<clipPath id="clip0_103_529">
<rect width="38" height="38" fill="white" transform="translate(-7 19) rotate(-30)"/>
</clipPath>
</defs>
</svg>
