<svg width="69" height="101" viewBox="0 0 69 101" fill="none" xmlns="http://www.w3.org/2000/svg">
<path d="M59.5898 10.8758C63.6638 13.4382 67.0137 16.7791 68.5564 18.6143C68.5564 18.6143 50.3362 11.5759 42.8992 24.4515C65.2093 10.557 67.4769 45.5681 67.4769 45.5681C64.982 42.8655 57.8793 35.0322 51.8526 32.7201C47.7293 31.1382 42.2464 32.9227 42.4282 32.9704C50.2836 41.2215 43.61 97.8715 39.4726 100.234C35.9999 101.848 34.2736 99.4857 32.766 96.6317C36.1424 85.8471 47.2881 36.2466 35.4595 33.4476C35.4579 33.4473 35.4569 33.4453 35.4552 33.4449C34.4374 33.2591 33.3497 33.3673 32.8911 34.2816C32.0174 36.0234 31.7012 39.5622 30.5752 41.4558C27.9632 45.8503 26.4621 47.0099 24.6054 47.9546C22.6981 44.4658 22.9782 36.3422 23.9292 32.6317C20.9533 32.3858 15.7763 32.8843 7.82876 41.7571C10.641 30.5572 16.5623 24.028 25.9869 25.3588C23.3534 21.4907 4.64673 21.1247 0.668075 24.934C2.82325 14.9407 20.0552 11.797 30.1594 18.8237C28.4446 16.9711 25.9453 16.3329 24.6687 13.2209C22.9557 9.04509 20.6306 4.91968 18.5955 0.776348C31.0984 1.84632 39.3527 10.299 37.6152 16.1656C43.4604 4.38336 52.5984 6.47903 59.5899 10.8761L59.5898 10.8758Z" fill="#222222"/>
</svg>
